<svg width="55" height="55" viewBox="0 0 55 55" fill="none" xmlns="http://www.w3.org/2000/svg">
<path d="M0 27.077C0 12.1228 12.1228 0 27.077 0C42.0312 0 54.154 12.1228 54.154 27.077C54.154 42.0312 42.0312 54.154 27.077 54.154C12.1228 54.154 0 42.0312 0 27.077Z" fill="#333333"/>
<path d="M21.6622 43.3133C24.6531 43.3133 27.0776 40.8887 27.0776 37.8979V32.4825H21.6622C18.6714 32.4825 16.2468 34.907 16.2468 37.8979C16.2468 40.8887 18.6714 43.3133 21.6622 43.3133Z" fill="#0ACF83"/>
<path d="M16.2451 27.0613C16.2451 24.0704 18.6697 21.6459 21.6605 21.6459H27.0759V32.4767H21.6605C18.6697 32.4767 16.2451 30.0521 16.2451 27.0613Z" fill="#A259FF"/>
<path d="M16.2468 16.2376C16.2468 13.2468 18.6714 10.8222 21.6622 10.8222H27.0776V21.653H21.6622C18.6714 21.653 16.2468 19.2285 16.2468 16.2376Z" fill="#F24E1E"/>
<path d="M27.0784 10.8222H32.4938C35.4846 10.8222 37.9092 13.2468 37.9092 16.2376C37.9092 19.2285 35.4846 21.653 32.4938 21.653H27.0784V10.8222Z" fill="#FF7262"/>
<path d="M37.9075 27.0613C37.9075 30.0521 35.4829 32.4767 32.4921 32.4767C29.5012 32.4767 27.0767 30.0521 27.0767 27.0613C27.0767 24.0704 29.5012 21.6459 32.4921 21.6459C35.4829 21.6459 37.9075 24.0704 37.9075 27.0613Z" fill="#1ABCFE"/>
</svg>
