<svg width="55" height="42" viewBox="0 0 55 42" fill="none" xmlns="http://www.w3.org/2000/svg">
<path d="M3.81146 41.1826H12.4269V20.2595L0.119141 11.0287V37.4903C0.119141 39.5303 1.77145 41.1826 3.81146 41.1826Z" fill="#4285F4"/>
<path d="M41.9646 41.1826H50.58C52.62 41.1826 54.2723 39.5303 54.2723 37.4903V11.0287L41.9646 20.2595V41.1826Z" fill="#34A853"/>
<path d="M41.9646 4.25976V20.2598L54.2723 11.029V6.10592C54.2723 1.54283 49.0631 -1.06333 45.4108 1.67514L41.9646 4.25976Z" fill="#FBBC04"/>
<path fill-rule="evenodd" clip-rule="evenodd" d="M12.427 20.2607V4.26065L27.1963 15.3376L41.9655 4.26065V20.2607L27.1963 31.3377L12.427 20.2607Z" fill="#EA4335"/>
<path d="M0.119141 6.10592V11.029L12.4269 20.2598V4.25976L8.9807 1.67514C5.32839 -1.06333 0.119141 1.54283 0.119141 6.10592Z" fill="#C5221F"/>
</svg>
