<svg width="55" height="55" viewBox="0 0 55 55" fill="none" xmlns="http://www.w3.org/2000/svg">
<path d="M27.1381 0C19.7843 0 18.8614 0.0321545 15.9732 0.163591C13.0906 0.295591 11.123 0.751951 9.40131 1.42154C7.62041 2.11313 6.10973 3.03827 4.60468 4.54386C3.09851 6.04889 2.17337 7.55956 1.47951 9.33987C0.80822 11.0621 0.351291 13.0302 0.221546 15.9117C0.0929287 18.7999 0.059082 19.7233 0.059082 27.077C0.059082 34.4307 0.0918009 35.3507 0.222674 38.2389C0.35524 41.1215 0.811605 43.0891 1.48064 44.8107C2.1728 46.5916 3.09794 48.1023 4.60355 49.6073C6.10803 51.1135 7.61872 52.0409 9.39849 52.7325C11.1213 53.4021 13.0895 53.8584 15.9715 53.9904C18.8597 54.1218 19.7821 54.154 27.1352 54.154C34.4895 54.154 35.4096 54.1218 38.2979 53.9904C41.1805 53.8584 43.1503 53.4021 44.8731 52.7325C46.6534 52.0409 48.1619 51.1135 49.6664 49.6073C51.1725 48.1023 52.0977 46.5916 52.7915 44.8113C53.4572 43.0891 53.9141 41.1209 54.0495 38.2395C54.1792 35.3513 54.2131 34.4307 54.2131 27.077C54.2131 19.7233 54.1792 18.8005 54.0495 15.9123C53.9141 13.0297 53.4572 11.0621 52.7915 9.34044C52.0977 7.55956 51.1725 6.04889 49.6664 4.54386C48.1602 3.0377 46.654 2.11257 44.8714 1.42154C43.1453 0.751951 41.1765 0.295591 38.2939 0.163591C35.4057 0.0321545 34.4862 0 27.1302 0H27.1381ZM24.709 4.8795C25.4299 4.87837 26.2344 4.8795 27.1381 4.8795C34.3677 4.8795 35.2246 4.90545 38.0795 5.03519C40.7196 5.15591 42.1524 5.59704 43.1069 5.96766C44.3705 6.45843 45.2714 7.0451 46.2185 7.99279C47.1662 8.94049 47.7529 9.84305 48.2448 11.1066C48.6154 12.06 49.0571 13.4928 49.1773 16.1328C49.307 18.9872 49.3352 19.8446 49.3352 27.0708C49.3352 34.297 49.307 35.1544 49.1773 38.0088C49.0566 40.6488 48.6154 42.0816 48.2448 43.0349C47.754 44.2985 47.1662 45.1983 46.2185 46.1454C45.2708 47.0931 44.3711 47.6798 43.1069 48.1705C42.1535 48.5429 40.7196 48.9829 38.0795 49.1036C35.2251 49.2333 34.3677 49.2615 27.1381 49.2615C19.9079 49.2615 19.051 49.2333 16.1966 49.1036C13.5565 48.9817 12.1237 48.5406 11.1687 48.17C9.90506 47.6792 9.00248 47.0925 8.05478 46.1449C7.10707 45.1972 6.5204 44.2968 6.0285 43.0327C5.65788 42.0793 5.21618 40.6465 5.09602 38.0065C4.96628 35.1522 4.94033 34.2947 4.94033 27.064C4.94033 19.8333 4.96628 18.9804 5.09602 16.126C5.21674 13.486 5.65788 12.0532 6.0285 11.0987C6.51927 9.83516 7.10707 8.93259 8.05478 7.9849C9.00248 7.0372 9.90506 6.45053 11.1687 5.95863C12.1231 5.58632 13.5565 5.14632 16.1966 5.02504C18.6945 4.91222 19.6625 4.87837 24.709 4.87273V4.8795Z" fill="url(#paint0_radial_148_277)"/>
<path d="M41.5335 9.3089C40.8908 9.3089 40.2625 9.49949 39.7281 9.85657C39.1938 10.2137 38.7773 10.7212 38.5314 11.315C38.2855 11.9088 38.2212 12.5621 38.3467 13.1924C38.4722 13.8228 38.7817 14.4017 39.2363 14.8561C39.6908 15.3105 40.2699 15.6198 40.9002 15.7451C41.5306 15.8703 42.184 15.8058 42.7777 15.5597C43.3714 15.3136 43.8788 14.897 44.2357 14.3625C44.5926 13.828 44.783 13.1997 44.7827 12.557C44.7827 10.7632 43.3273 9.30777 41.5335 9.30777V9.3089Z" fill="url(#paint1_radial_148_277)"/>
<path fill-rule="evenodd" clip-rule="evenodd" d="M27.0798 13.1053C19.4006 13.1053 13.1745 19.3313 13.1745 27.0105C13.1745 34.6896 19.4006 40.9128 27.0798 40.9128C34.7591 40.9128 40.9835 34.6896 40.9835 27.0105C40.9835 19.3313 34.7591 13.1053 27.0798 13.1053ZM27.1361 35.9617C32.0429 35.9617 36.0207 31.9839 36.0207 27.0771C36.0207 22.1702 32.0429 18.1924 27.1361 18.1924C22.2292 18.1924 18.2515 22.1702 18.2515 27.0771C18.2515 31.9839 22.2292 35.9617 27.1361 35.9617Z" fill="url(#paint2_radial_148_277)"/>
<path d="M27.1381 0C19.7843 0 18.8614 0.0321545 15.9732 0.163591C13.0906 0.295591 11.123 0.751951 9.40131 1.42154C7.62041 2.11313 6.10973 3.03827 4.60468 4.54386C3.09851 6.04889 2.17337 7.55956 1.47951 9.33987C0.80822 11.0621 0.351291 13.0302 0.221546 15.9117C0.0929287 18.7999 0.059082 19.7233 0.059082 27.077C0.059082 34.4307 0.0918009 35.3507 0.222674 38.2389C0.35524 41.1215 0.811605 43.0891 1.48064 44.8107C2.1728 46.5916 3.09794 48.1023 4.60355 49.6073C6.10803 51.1135 7.61872 52.0409 9.39849 52.7325C11.1213 53.4021 13.0895 53.8584 15.9715 53.9904C18.8597 54.1218 19.7821 54.154 27.1352 54.154C34.4895 54.154 35.4096 54.1218 38.2979 53.9904C41.1805 53.8584 43.1503 53.4021 44.8731 52.7325C46.6534 52.0409 48.1619 51.1135 49.6664 49.6073C51.1725 48.1023 52.0977 46.5916 52.7915 44.8113C53.4572 43.0891 53.9141 41.1209 54.0495 38.2395C54.1792 35.3513 54.2131 34.4307 54.2131 27.077C54.2131 19.7233 54.1792 18.8005 54.0495 15.9123C53.9141 13.0297 53.4572 11.0621 52.7915 9.34044C52.0977 7.55956 51.1725 6.04889 49.6664 4.54386C48.1602 3.0377 46.654 2.11257 44.8714 1.42154C43.1453 0.751951 41.1765 0.295591 38.2939 0.163591C35.4057 0.0321545 34.4862 0 27.1302 0H27.1381ZM24.709 4.8795C25.4299 4.87837 26.2344 4.8795 27.1381 4.8795C34.3677 4.8795 35.2246 4.90545 38.0795 5.03519C40.7196 5.15591 42.1524 5.59704 43.1069 5.96766C44.3705 6.45843 45.2714 7.0451 46.2185 7.99279C47.1662 8.94049 47.7529 9.84305 48.2448 11.1066C48.6154 12.06 49.0571 13.4928 49.1773 16.1328C49.307 18.9872 49.3352 19.8446 49.3352 27.0708C49.3352 34.297 49.307 35.1544 49.1773 38.0088C49.0566 40.6488 48.6154 42.0816 48.2448 43.0349C47.754 44.2985 47.1662 45.1983 46.2185 46.1454C45.2708 47.0931 44.3711 47.6798 43.1069 48.1705C42.1535 48.5429 40.7196 48.9829 38.0795 49.1036C35.2251 49.2333 34.3677 49.2615 27.1381 49.2615C19.9079 49.2615 19.051 49.2333 16.1966 49.1036C13.5565 48.9817 12.1237 48.5406 11.1687 48.17C9.90506 47.6792 9.00248 47.0925 8.05478 46.1448C7.10707 45.1972 6.5204 44.2968 6.0285 43.0327C5.65787 42.0794 5.21618 40.6465 5.09602 38.0065C4.96628 35.1522 4.94033 34.2947 4.94033 27.064C4.94033 19.8333 4.96628 18.9804 5.09602 16.126C5.21674 13.486 5.65787 12.0532 6.0285 11.0987C6.51927 9.83516 7.10707 8.93259 8.05478 7.9849C9.00248 7.0372 9.90506 6.45053 11.1687 5.95863C12.1231 5.58632 13.5565 5.14632 16.1966 5.02504C18.6945 4.91222 19.6625 4.87837 24.709 4.87273V4.8795Z" fill="url(#paint3_radial_148_277)"/>
<path d="M41.5335 9.3089C40.8908 9.3089 40.2625 9.49949 39.7281 9.85657C39.1938 10.2137 38.7773 10.7212 38.5314 11.315C38.2855 11.9088 38.2212 12.5621 38.3467 13.1924C38.4722 13.8228 38.7817 14.4017 39.2363 14.8561C39.6908 15.3105 40.2699 15.6198 40.9002 15.7451C41.5306 15.8703 42.184 15.8058 42.7777 15.5597C43.3714 15.3136 43.8788 14.897 44.2357 14.3625C44.5926 13.828 44.783 13.1997 44.7827 12.557C44.7827 10.7632 43.3273 9.30777 41.5335 9.30777V9.3089Z" fill="url(#paint4_radial_148_277)"/>
<path fill-rule="evenodd" clip-rule="evenodd" d="M27.0798 13.1053C19.4006 13.1053 13.1745 19.3313 13.1745 27.0105C13.1745 34.6896 19.4006 40.9128 27.0798 40.9128C34.7591 40.9128 40.9834 34.6896 40.9834 27.0105C40.9834 19.3313 34.7591 13.1053 27.0798 13.1053ZM27.1361 35.9617C32.0429 35.9617 36.0207 31.9839 36.0207 27.0771C36.0207 22.1702 32.0429 18.1924 27.1361 18.1924C22.2292 18.1924 18.2515 22.1702 18.2515 27.0771C18.2515 31.9839 22.2292 35.9617 27.1361 35.9617Z" fill="url(#paint5_radial_148_277)"/>
<defs>
<radialGradient id="paint0_radial_148_277" cx="0" cy="0" r="1" gradientUnits="userSpaceOnUse" gradientTransform="translate(14.4438 58.325) rotate(-90) scale(53.6706 49.9179)">
<stop stop-color="#FFDD55"/>
<stop offset="0.1" stop-color="#FFDD55"/>
<stop offset="0.5" stop-color="#FF543E"/>
<stop offset="1" stop-color="#C837AB"/>
</radialGradient>
<radialGradient id="paint1_radial_148_277" cx="0" cy="0" r="1" gradientUnits="userSpaceOnUse" gradientTransform="translate(14.4438 58.325) rotate(-90) scale(53.6706 49.9179)">
<stop stop-color="#FFDD55"/>
<stop offset="0.1" stop-color="#FFDD55"/>
<stop offset="0.5" stop-color="#FF543E"/>
<stop offset="1" stop-color="#C837AB"/>
</radialGradient>
<radialGradient id="paint2_radial_148_277" cx="0" cy="0" r="1" gradientUnits="userSpaceOnUse" gradientTransform="translate(14.4438 58.325) rotate(-90) scale(53.6706 49.9179)">
<stop stop-color="#FFDD55"/>
<stop offset="0.1" stop-color="#FFDD55"/>
<stop offset="0.5" stop-color="#FF543E"/>
<stop offset="1" stop-color="#C837AB"/>
</radialGradient>
<radialGradient id="paint3_radial_148_277" cx="0" cy="0" r="1" gradientUnits="userSpaceOnUse" gradientTransform="translate(-9.012 3.90116) rotate(78.6806) scale(23.991 98.8919)">
<stop stop-color="#3771C8"/>
<stop offset="0.128" stop-color="#3771C8"/>
<stop offset="1" stop-color="#6600FF" stop-opacity="0"/>
</radialGradient>
<radialGradient id="paint4_radial_148_277" cx="0" cy="0" r="1" gradientUnits="userSpaceOnUse" gradientTransform="translate(-9.012 3.90116) rotate(78.6806) scale(23.991 98.8919)">
<stop stop-color="#3771C8"/>
<stop offset="0.128" stop-color="#3771C8"/>
<stop offset="1" stop-color="#6600FF" stop-opacity="0"/>
</radialGradient>
<radialGradient id="paint5_radial_148_277" cx="0" cy="0" r="1" gradientUnits="userSpaceOnUse" gradientTransform="translate(-9.012 3.90116) rotate(78.6806) scale(23.991 98.8919)">
<stop stop-color="#3771C8"/>
<stop offset="0.128" stop-color="#3771C8"/>
<stop offset="1" stop-color="#6600FF" stop-opacity="0"/>
</radialGradient>
</defs>
</svg>
