<svg width="54" height="55" viewBox="0 0 54 55" fill="none" xmlns="http://www.w3.org/2000/svg">
<path d="M0.179199 9.02567C0.179199 4.04093 4.21352 0 9.19012 0H44.1941C49.1707 0 53.205 4.04093 53.205 9.02567V45.1283C53.205 50.1131 49.1707 54.154 44.1941 54.154H9.19012C4.21353 54.154 0.179199 50.1131 0.179199 45.1283V9.02567Z" fill="#0077B5"/>
<path d="M37.504 46.5415H45.4888V30.4112C45.4888 22.4449 40.6741 19.7277 36.2186 19.7277C32.0988 19.7277 29.3002 22.4687 28.5275 24.0744V20.4608H20.8485V46.5415H28.8333V32.4014C28.8333 28.6312 31.1558 26.7976 33.5251 26.7976C35.7661 26.7976 37.504 28.0938 37.504 32.2967V46.5415Z" fill="white"/>
<path d="M7.45605 12.1144C7.45605 14.8372 9.51706 16.827 12.0594 16.827C14.6021 16.827 16.6631 14.8372 16.6631 12.1144C16.6631 9.39194 14.6021 7.39987 12.0594 7.39987C9.51706 7.39987 7.45605 9.39194 7.45605 12.1144Z" fill="white"/>
<path d="M8.0672 46.5215H16.0516V20.4407H8.0672V46.5215Z" fill="white"/>
</svg>
