<svg width="120" height="120" viewBox="0 0 120 120" fill="none" xmlns="http://www.w3.org/2000/svg">
<path d="M29.4563 61.8638L26.6113 103.102H12.6521L19.3551 38.8164H34.0471L52.2306 87.9501L69.861 38.8164H84.9193L91.7157 103.102H77.0238L73.5322 62.0506L58.7468 103.102H43.9614L29.4491 61.8638H29.4563Z" fill="#E19E01"/>
<path d="M87.6492 27.1753C87.6492 20.9393 91.2054 16.8945 97.5564 16.8945C103.907 16.8945 107.349 20.9106 107.349 27.2328C107.349 33.555 103.649 37.5136 97.4127 37.5136C91.1767 37.5136 87.6492 33.5263 87.6492 27.1753V27.1753ZM102.514 27.2615C102.514 23.2455 100.552 20.9106 97.5061 20.9106C94.4599 20.9106 92.4699 23.188 92.4699 27.1466C92.4699 31.1052 94.4024 33.5263 97.5348 33.5263C100.667 33.5263 102.514 31.2201 102.514 27.2615V27.2615Z" fill="#E19E01"/>
</svg>
