<svg xmlns="http://www.w3.org/2000/svg" fill="none" viewBox="3.25 2.71 109.21 40.23">
<g clip-path="url(#clip0_240_6298)">
<path d="M43.2421 7.50054C40.3115 7.50054 37.9359 9.87621 37.9359 12.8052C37.9359 15.7358 40.3115 18.1114 43.2421 18.1114C46.1727 18.1114 48.5483 15.7358 48.5483 12.8052C48.5483 9.87621 46.1727 7.50054 43.2421 7.50054ZM42.1008 6.5342H44.385C44.4906 6.5342 44.5884 6.48217 44.6499 6.39547C44.7098 6.31034 44.7239 6.19842 44.6877 6.0991L43.5448 3.00616C43.4975 2.87847 43.3777 2.79492 43.2421 2.79492C43.1065 2.79492 42.9867 2.88005 42.9394 3.00616L41.7965 6.10068C41.7603 6.19999 41.7745 6.31034 41.8344 6.39705C41.8958 6.48375 41.9952 6.5342 42.1008 6.5342ZM48.4853 9.17943C48.5452 9.24091 48.6287 9.27402 48.7123 9.27402C48.7312 9.27402 48.7501 9.27244 48.769 9.26929C48.8731 9.25037 48.9598 9.18259 49.0055 9.08642L50.3865 6.08964C50.4432 5.96668 50.4164 5.82323 50.3218 5.72707C50.2257 5.63091 50.0806 5.60568 49.9577 5.66086L46.9625 7.04338C46.8663 7.08752 46.7985 7.1758 46.7796 7.27984C46.7607 7.38389 46.7954 7.48951 46.8679 7.56518L48.4853 9.17943ZM53.0443 12.5041L49.9482 11.3628C49.8489 11.3265 49.7385 11.3407 49.6518 11.4006C49.5651 11.4605 49.5147 11.5583 49.5147 11.6639L49.5163 13.9481C49.5163 14.0537 49.5683 14.153 49.655 14.2129C49.7102 14.2492 49.7748 14.2697 49.8394 14.2697C49.8773 14.2697 49.9151 14.2634 49.9514 14.2492L53.0475 13.1079C53.1736 13.0622 53.2587 12.9408 53.2587 12.8036C53.2555 12.6712 53.172 12.5514 53.0443 12.5041ZM49.0055 16.5271C48.9837 16.4799 48.9509 16.4386 48.9097 16.4067C48.8685 16.3749 48.8203 16.3535 48.769 16.3443C48.665 16.3269 48.5578 16.36 48.4853 16.4341L46.8695 18.05C46.7954 18.1241 46.7607 18.2313 46.7796 18.3353C46.7985 18.4378 46.8663 18.5276 46.9625 18.5718L49.9592 19.9527C50.0018 19.9732 50.0475 19.9811 50.0948 19.9811C50.1784 19.9811 50.2603 19.948 50.3218 19.8865C50.418 19.7903 50.4432 19.6469 50.3865 19.5239L49.0055 16.5271ZM44.3834 19.0778L42.0992 19.0794C41.9936 19.0794 41.8958 19.1314 41.8359 19.2181C41.776 19.3048 41.7618 19.4151 41.7965 19.5129L42.9394 22.609C42.9867 22.7351 43.1065 22.8202 43.2421 22.8202C43.3777 22.8202 43.4975 22.7351 43.5448 22.609L44.6877 19.5129C44.7239 19.4136 44.7098 19.3032 44.6499 19.2165C44.5884 19.1298 44.4906 19.0778 44.3834 19.0778ZM37.9989 16.4341C37.9248 16.36 37.8192 16.3269 37.7152 16.3443C37.6111 16.3632 37.5228 16.431 37.4787 16.5271L36.0978 19.5239C36.041 19.6469 36.0678 19.7919 36.164 19.8865C36.2105 19.9331 36.2702 19.9644 36.3351 19.9759C36.3999 19.9875 36.4668 19.9788 36.5265 19.9511L39.5233 18.5686C39.5706 18.5468 39.6119 18.514 39.6437 18.4728C39.6756 18.4316 39.697 18.3834 39.7062 18.3321C39.7251 18.2281 39.6904 18.1225 39.6163 18.0484L37.9989 16.4341ZM36.6479 14.2713C36.7126 14.2713 36.7772 14.2508 36.8324 14.2129C36.9191 14.153 36.9711 14.0537 36.9711 13.9481L36.9695 11.6639C36.9695 11.612 36.957 11.5608 36.933 11.5148C36.909 11.4688 36.8743 11.4292 36.8317 11.3995C36.7891 11.3698 36.74 11.3508 36.6885 11.3441C36.6371 11.3374 36.5847 11.3433 36.536 11.3612L33.4399 12.5041C33.3779 12.5268 33.3244 12.5681 33.2866 12.6222C33.2488 12.6763 33.2285 12.7408 33.2285 12.8068C33.2285 12.8728 33.2488 12.9372 33.2866 12.9914C33.3244 13.0455 33.3779 13.0867 33.4399 13.1095L36.5376 14.2508C36.5738 14.265 36.6101 14.2713 36.6479 14.2713ZM37.4803 9.08642C37.5021 9.13366 37.535 9.17493 37.5762 9.20671C37.6174 9.2385 37.6657 9.25987 37.7169 9.269C37.7682 9.27813 37.8208 9.27476 37.8705 9.25916C37.9201 9.24357 37.9653 9.21622 38.0021 9.17943L39.6163 7.5636C39.6904 7.48793 39.7235 7.38231 39.7046 7.27827C39.6857 7.1758 39.6179 7.08752 39.5217 7.04338L36.5234 5.66243C36.4004 5.60568 36.257 5.63248 36.1608 5.72864C36.0647 5.82481 36.0394 5.96826 36.0962 6.09122L37.4803 9.08642Z" fill="#FF9E2C"/>
</g>
<path d="M25.5865 23.699L25.7547 11.9284H25.3063L17.4592 32.0506L9.61214 11.9284H9.16373L9.33188 23.699V42.4199H3.78288V3.29662H11.4618L17.4592 18.8226H17.8516L23.905 3.29662H31.1356V42.4199H25.5865V23.699Z" fill="#FCC21B"/>
<path d="M25.5865 23.699L25.0582 23.6915V23.699H25.5865ZM25.7547 11.9284L26.283 11.936L26.2906 11.4001H25.7547V11.9284ZM25.3063 11.9284V11.4001H24.9453L24.8141 11.7365L25.3063 11.9284ZM17.4592 32.0506L16.967 32.2425L17.4592 33.5047L17.9514 32.2425L17.4592 32.0506ZM9.61213 11.9284L10.1043 11.7365L9.97317 11.4001H9.61213V11.9284ZM9.16373 11.9284V11.4001H8.62782L8.63548 11.936L9.16373 11.9284ZM9.33188 23.699H9.86024L9.86013 23.6915L9.33188 23.699ZM9.33188 42.4199V42.9482H9.86019V42.4199H9.33188ZM3.78288 42.4199H3.25457V42.9482H3.78288V42.4199ZM3.78288 3.29662V2.76832H3.25457V3.29662H3.78288ZM11.4618 3.29662L11.9546 3.10626L11.8241 2.76832H11.4618V3.29662ZM17.4592 18.8226L16.9664 19.013L17.0969 19.3509H17.4592V18.8226ZM17.8516 18.8226V19.3509H18.2126L18.3438 19.0145L17.8516 18.8226ZM23.905 3.29662V2.76832H23.544L23.4128 3.10471L23.905 3.29662ZM31.1356 3.29662H31.6639V2.76832H31.1356V3.29662ZM31.1356 42.4199V42.9482H31.6639V42.4199H31.1356ZM25.5865 42.4199H25.0582V42.9482H25.5865V42.4199ZM26.1148 23.7066L26.283 11.936L25.2264 11.9209L25.0583 23.6915L26.1148 23.7066ZM25.7547 11.4001H25.3063V12.4567H25.7547V11.4001ZM24.8141 11.7365L16.967 31.8586L17.9514 32.2425L25.7985 12.1204L24.8141 11.7365ZM17.9514 31.8586L10.1043 11.7365L9.11993 12.1204L16.967 32.2425L17.9514 31.8586ZM9.61213 11.4001H9.16373V12.4567H9.61213V11.4001ZM8.63548 11.936L8.80363 23.7066L9.86013 23.6915L9.69198 11.9209L8.63548 11.936ZM8.80358 23.699V42.4199H9.86019V23.699H8.80358ZM9.33188 41.8916H3.78288V42.9482H9.33188V41.8916ZM4.31118 42.4199V3.29662H3.25457V42.4199H4.31118ZM3.78288 3.82493H11.4618V2.76832H3.78288V3.82493ZM10.969 3.48699L16.9664 19.013L17.952 18.6323L11.9546 3.10626L10.969 3.48699ZM17.4592 19.3509H17.8516V18.2943H17.4592V19.3509ZM18.3438 19.0145L24.3972 3.48853L23.4128 3.10471L17.3594 18.6307L18.3438 19.0145ZM23.905 3.82493H31.1356V2.76832H23.905V3.82493ZM30.6073 3.29662V42.4199H31.6639V3.29662H30.6073ZM31.1356 41.8916H25.5865V42.9482H31.1356V41.8916ZM26.1149 42.4199V23.699H25.0582V42.4199H26.1149Z" fill="#FF9E2C"/>
<path d="M56.5147 5.59678H61.1781C63.181 5.59678 64.6607 6.26191 65.6173 7.59218C66.5889 8.92244 67.0747 10.8655 67.0747 13.4214C67.0747 15.9773 66.5889 17.9204 65.6173 19.2507C64.6607 20.581 63.181 21.2461 61.1781 21.2461H56.5147V5.59678ZM61.0212 19.1834C62.1721 19.1834 63.0241 18.8023 63.5771 18.04C64.1451 17.2628 64.4291 16.1567 64.4291 14.7218V12.1211C64.4291 10.6862 64.1451 9.58758 63.5771 8.82529C63.0241 8.04806 62.1721 7.65944 61.0212 7.65944H59.0034V19.1834H61.0212ZM71.393 21.2461V5.59678H81.1906V7.70428H73.9041V12.2556H80.9216V14.3631H73.9041V19.1386H81.1906V21.2461H71.393ZM90.845 21.5151C89.4848 21.5151 88.3414 21.276 87.4147 20.7977C86.488 20.3194 85.7257 19.6842 85.1278 18.892L86.7421 17.345C87.34 18.0624 87.9752 18.593 88.6478 18.9368C89.3204 19.2656 90.0827 19.4301 90.9347 19.4301C91.9212 19.4301 92.676 19.2059 93.1991 18.7574C93.7372 18.309 94.0062 17.6663 94.0062 16.8293C94.0062 16.1567 93.8119 15.641 93.4233 15.2823C93.0347 14.9086 92.3696 14.6396 91.4279 14.4752L89.724 14.2061C88.9766 14.0866 88.3489 13.8923 87.8407 13.6232C87.3325 13.3392 86.9215 13.0104 86.6076 12.6367C86.2937 12.2481 86.062 11.8221 85.9125 11.3588C85.778 10.8805 85.7108 10.3798 85.7108 9.85662C85.7108 8.37688 86.1891 7.25587 87.1457 6.49359C88.1023 5.71635 89.4176 5.32773 91.0916 5.32773C92.3322 5.32773 93.386 5.52952 94.2529 5.93308C95.1347 6.3217 95.8447 6.87473 96.3828 7.59218L94.8134 9.16159C94.3799 8.63845 93.8643 8.21994 93.2664 7.90606C92.6835 7.57723 91.9585 7.41282 91.0916 7.41282C90.1649 7.41282 89.4549 7.6146 88.9617 8.01816C88.4834 8.40678 88.2442 8.98223 88.2442 9.74452C88.2442 10.3872 88.4311 10.8954 88.8048 11.2691C89.1934 11.6278 89.8735 11.8894 90.845 12.0538L92.5041 12.3453C93.9091 12.5994 94.9329 13.115 95.5757 13.8923C96.2184 14.6545 96.5397 15.5887 96.5397 16.6948C96.5397 17.4122 96.4127 18.0699 96.1586 18.6678C95.9194 19.2656 95.5532 19.7738 95.06 20.1923C94.5817 20.6109 93.9838 20.9397 93.2664 21.1788C92.5639 21.403 91.7568 21.5151 90.845 21.5151ZM107.024 7.70428V21.2461H104.513V7.70428H99.6025V5.59678H111.934V7.70428H107.024Z" fill="#FCC21B"/>
<path d="M56.5147 5.59678V5.06847H55.9864V5.59678H56.5147ZM65.6173 7.59218L65.1884 7.90062L65.1907 7.90377L65.6173 7.59218ZM65.6173 19.2507L65.1907 18.9391L65.1884 18.9423L65.6173 19.2507ZM56.5147 21.2461H55.9864V21.7744H56.5147V21.2461ZM63.5771 18.04L63.1505 17.7283L63.1495 17.7298L63.5771 18.04ZM63.5771 8.82529L63.1465 9.13165L63.1535 9.14094L63.5771 8.82529ZM59.0034 7.65944V7.13113H58.4751V7.65944H59.0034ZM59.0034 19.1834H58.4751V19.7117H59.0034V19.1834ZM56.5147 6.12508H61.1781V5.06847H56.5147V6.12508ZM61.1781 6.12508C63.0536 6.12508 64.3536 6.73966 65.1884 7.90061L66.0463 7.28374C64.9679 5.78416 63.3085 5.06847 61.1781 5.06847V6.12508ZM65.1907 7.90377C66.0688 9.10602 66.5463 10.9198 66.5463 13.4214H67.603C67.603 10.8113 67.109 8.73887 66.044 7.28059L65.1907 7.90377ZM66.5463 13.4214C66.5463 15.9231 66.0688 17.7369 65.1907 18.9391L66.044 19.5623C67.109 18.104 67.603 16.0316 67.603 13.4214H66.5463ZM65.1884 18.9423C64.3536 20.1032 63.0536 20.7178 61.1781 20.7178V21.7744C63.3085 21.7744 64.9679 21.0587 66.0463 19.5591L65.1884 18.9423ZM61.1781 20.7178H56.5147V21.7744H61.1781V20.7178ZM57.043 21.2461V5.59678H55.9864V21.2461H57.043ZM61.0212 19.7117C62.2991 19.7117 63.3299 19.2805 64.0047 18.3502L63.1495 17.7298C62.7183 18.3241 62.0451 18.6551 61.0212 18.6551V19.7117ZM64.0036 18.3517C64.663 17.4494 64.9574 16.2165 64.9574 14.7218H63.9008C63.9008 16.0969 63.6271 17.0762 63.1505 17.7283L64.0036 18.3517ZM64.9574 14.7218V12.1211H63.9008V14.7218H64.9574ZM64.9574 12.1211C64.9574 10.6273 64.6634 9.39905 64.0007 8.50964L63.1535 9.14094C63.6267 9.77611 63.9008 10.745 63.9008 12.1211H64.9574ZM64.0076 8.519C63.3343 7.57279 62.3031 7.13113 61.0212 7.13113V8.18774C62.0411 8.18774 62.7138 8.52332 63.1466 9.13158L64.0076 8.519ZM61.0212 7.13113H59.0034V8.18774H61.0212V7.13113ZM58.4751 7.65944V19.1834H59.5317V7.65944H58.4751ZM59.0034 19.7117H61.0212V18.6551H59.0034V19.7117ZM71.393 21.2461H70.8647V21.7744H71.393V21.2461ZM71.393 5.59678V5.06847H70.8647V5.59678H71.393ZM81.1906 5.59678H81.7189V5.06847H81.1906V5.59678ZM81.1906 7.70428V8.23258H81.7189V7.70428H81.1906ZM73.9041 7.70428V7.17597H73.3758V7.70428H73.9041ZM73.9041 12.2556H73.3758V12.7839H73.9041V12.2556ZM80.9216 12.2556H81.4499V11.7273H80.9216V12.2556ZM80.9216 14.3631V14.8914H81.4499V14.3631H80.9216ZM73.9041 14.3631V13.8348H73.3758V14.3631H73.9041ZM73.9041 19.1386H73.3758V19.6669H73.9041V19.1386ZM81.1906 19.1386H81.7189V18.6103H81.1906V19.1386ZM81.1906 21.2461V21.7744H81.7189V21.2461H81.1906ZM71.9213 21.2461V5.59678H70.8647V21.2461H71.9213ZM71.393 6.12508H81.1906V5.06847H71.393V6.12508ZM80.6623 5.59678V7.70428H81.7189V5.59678H80.6623ZM81.1906 7.17597H73.9041V8.23258H81.1906V7.17597ZM73.3758 7.70428V12.2556H74.4324V7.70428H73.3758ZM73.9041 12.7839H80.9216V11.7273H73.9041V12.7839ZM80.3933 12.2556V14.3631H81.4499V12.2556H80.3933ZM80.9216 13.8348H73.9041V14.8914H80.9216V13.8348ZM73.3758 14.3631V19.1386H74.4324V14.3631H73.3758ZM73.9041 19.6669H81.1906V18.6103H73.9041V19.6669ZM80.6623 19.1386V21.2461H81.7189V19.1386H80.6623ZM81.1906 20.7178H71.393V21.7744H81.1906V20.7178ZM87.4147 20.7977L87.1724 21.2672L87.4147 20.7977ZM85.1278 18.892L84.7623 18.5105L84.4233 18.8354L84.7062 19.2102L85.1278 18.892ZM86.7421 17.345L87.1479 17.0068L86.7854 16.5717L86.3766 16.9635L86.7421 17.345ZM88.6478 18.9368L88.4073 19.4073L88.4158 19.4114L88.6478 18.9368ZM93.1991 18.7574L92.8609 18.3516L92.8553 18.3563L93.1991 18.7574ZM93.4233 15.2823L93.0571 15.6632L93.065 15.6705L93.4233 15.2823ZM91.4279 14.4752L91.5188 13.9547L91.5103 13.9533L91.4279 14.4752ZM89.724 14.2061L89.6405 14.7278L89.6416 14.728L89.724 14.2061ZM87.8407 13.6232L87.5829 14.0845L87.5935 14.0901L87.8407 13.6232ZM86.6076 12.6367L86.1965 12.9687L86.203 12.9765L86.6076 12.6367ZM85.9125 11.3588L85.404 11.5018L85.4067 11.5114L85.4098 11.521L85.9125 11.3588ZM87.1457 6.49359L87.4749 6.90677L87.4788 6.90361L87.1457 6.49359ZM94.2529 5.93308L94.0299 6.41214L94.0398 6.41653L94.2529 5.93308ZM96.3828 7.59218L96.7564 7.96575L97.0804 7.64175L96.8054 7.27519L96.3828 7.59218ZM94.8134 9.16159L94.4066 9.49866L94.7767 9.94539L95.1869 9.53516L94.8134 9.16159ZM93.2664 7.90606L93.0068 8.3662L93.0137 8.37012L93.0208 8.37382L93.2664 7.90606ZM88.9617 8.01816L89.2948 8.42819L89.2962 8.42705L88.9617 8.01816ZM88.8048 11.2691L88.4312 11.6427L88.4387 11.6501L88.4464 11.6573L88.8048 11.2691ZM90.845 12.0538L90.9364 11.5335L90.9331 11.5329L90.845 12.0538ZM92.5041 12.3453L92.5981 11.8254L92.5955 11.8249L92.5041 12.3453ZM95.5757 13.8923L95.1685 14.2289L95.1718 14.2328L95.5757 13.8923ZM96.1586 18.6678L95.6723 18.4611L95.6681 18.4716L96.1586 18.6678ZM95.06 20.1923L94.7182 19.7895L94.7121 19.7948L95.06 20.1923ZM93.2664 21.1788L93.427 21.6822L93.4334 21.68L93.2664 21.1788ZM90.845 20.9868C89.5444 20.9868 88.4895 20.7579 87.657 20.3282L87.1724 21.2672C88.1933 21.7941 89.4253 22.0434 90.845 22.0434V20.9868ZM87.657 20.3282C86.797 19.8844 86.0973 19.2995 85.5495 18.5737L84.7062 19.2102C85.3542 20.0688 86.179 20.7544 87.1724 21.2672L87.657 20.3282ZM85.4934 19.2734L87.1076 17.7264L86.3766 16.9635L84.7623 18.5105L85.4934 19.2734ZM86.3362 17.6832C86.9693 18.4428 87.6582 19.0243 88.4074 19.4072L88.8882 18.4664C88.2922 18.1618 87.7106 17.682 87.1479 17.0068L86.3362 17.6832ZM88.4158 19.4114C89.17 19.7802 90.0134 19.9584 90.9347 19.9584V18.9018C90.152 18.9018 89.4708 18.7511 88.8798 18.4622L88.4158 19.4114ZM90.9347 19.9584C91.9937 19.9584 92.89 19.7182 93.5429 19.1586L92.8553 18.3563C92.462 18.6935 91.8486 18.9018 90.9347 18.9018V19.9584ZM93.5373 19.1633C94.2196 18.5947 94.5346 17.7893 94.5346 16.8293H93.4779C93.4779 17.5433 93.2548 18.0233 92.8609 18.3516L93.5373 19.1633ZM94.5346 16.8293C94.5346 16.0519 94.3064 15.3785 93.7817 14.8941L93.065 15.6705C93.3175 15.9036 93.4779 16.2615 93.4779 16.8293H94.5346ZM93.7895 14.9015C93.2863 14.4176 92.4939 14.125 91.5188 13.9548L91.3371 14.9956C92.2452 15.1542 92.7831 15.3997 93.0571 15.6631L93.7895 14.9015ZM91.5103 13.9533L89.8064 13.6843L89.6416 14.728L91.3455 14.997L91.5103 13.9533ZM89.8074 13.6845C89.1003 13.5713 88.5316 13.3912 88.0879 13.1563L87.5935 14.0901C88.1662 14.3933 88.853 14.6018 89.6405 14.7278L89.8074 13.6845ZM88.0984 13.162C87.6356 12.9034 87.2777 12.6131 87.0121 12.2969L86.203 12.9765C86.5652 13.4077 87.0294 13.7751 87.583 14.0844L88.0984 13.162ZM87.0186 12.3048C86.7444 11.9653 86.5444 11.5966 86.4153 11.1966L85.4098 11.521C85.5797 12.0477 85.843 12.5309 86.1966 12.9687L87.0186 12.3048ZM86.4211 11.2157C86.3004 10.7864 86.2391 10.334 86.2391 9.85662H85.1825C85.1825 10.4256 85.2557 10.9746 85.404 11.5018L86.4211 11.2157ZM86.2391 9.85662C86.2391 8.50031 86.6707 7.5476 87.4749 6.90675L86.8164 6.08042C85.7074 6.96415 85.1825 8.25346 85.1825 9.85662H86.2391ZM87.4788 6.90361C88.3124 6.22635 89.4956 5.85604 91.0916 5.85604V4.79943C89.3395 4.79943 87.8921 5.20636 86.8125 6.08356L87.4788 6.90361ZM91.0916 5.85604C92.2772 5.85604 93.2503 6.04913 94.0299 6.41203L94.4758 5.45413C93.5216 5.0099 92.3872 4.79943 91.0916 4.79943V5.85604ZM94.0398 6.41653C94.8451 6.77138 95.4805 7.26966 95.9601 7.90916L96.8054 7.27519C96.2089 6.4798 95.4244 5.87201 94.4659 5.44964L94.0398 6.41653ZM96.0092 7.21861L94.4398 8.78802L95.1869 9.53516L96.7564 7.96575L96.0092 7.21861ZM95.2202 8.82452C94.7424 8.24793 94.1721 7.78486 93.512 7.4383L93.0208 8.37382C93.5564 8.65503 94.0174 9.02898 94.4066 9.49866L95.2202 8.82452ZM93.5259 7.44592C92.8438 7.0611 92.0233 6.88451 91.0916 6.88451V7.94112C91.8938 7.94112 92.5231 8.09336 93.0068 8.3662L93.5259 7.44592ZM91.0916 6.88451C90.0968 6.88451 89.2494 7.10015 88.6272 7.60927L89.2962 8.42705C89.6605 8.12904 90.233 7.94112 91.0916 7.94112V6.88451ZM88.6285 7.60814C87.9979 8.12053 87.7159 8.8645 87.7159 9.74452H88.7726C88.7726 9.09996 88.9689 8.69303 89.2948 8.42819L88.6285 7.60814ZM87.7159 9.74452C87.7159 10.4951 87.9377 11.1492 88.4312 11.6427L89.1783 10.8955C88.9244 10.6416 88.7726 10.2794 88.7726 9.74452H87.7159ZM88.4464 11.6573C88.9513 12.1233 89.7587 12.4058 90.7568 12.5747L90.9331 11.5329C89.9882 11.373 89.4355 11.1323 89.1631 10.8809L88.4464 11.6573ZM90.7536 12.5741L92.4127 12.8656L92.5955 11.8249L90.9364 11.5335L90.7536 12.5741ZM92.4101 12.8651C93.7427 13.1061 94.6327 13.581 95.1685 14.2289L95.9828 13.5556C95.2332 12.6491 94.0755 12.0926 92.5981 11.8254L92.4101 12.8651ZM95.1718 14.2328C95.7252 14.8892 96.0114 15.6988 96.0114 16.6948H97.068C97.068 15.4787 96.7115 14.4199 95.9796 13.5517L95.1718 14.2328ZM96.0114 16.6948C96.0114 17.3487 95.8959 17.9351 95.6724 18.4611L96.6448 18.8744C96.9294 18.2047 97.068 17.4758 97.068 16.6948H96.0114ZM95.6681 18.4716C95.4611 18.9891 95.1461 19.4265 94.7182 19.7895L95.4018 20.5952C95.9604 20.1212 96.3778 19.5422 96.6491 18.864L95.6681 18.4716ZM94.7121 19.7948C94.2956 20.1592 93.7626 20.4565 93.0993 20.6776L93.4334 21.68C94.205 21.4228 94.8678 21.0625 95.4079 20.5899L94.7121 19.7948ZM93.1058 20.6755C92.4658 20.8798 91.7146 20.9868 90.845 20.9868V22.0434C91.7989 22.0434 92.662 21.9263 93.427 21.6821L93.1058 20.6755ZM107.024 7.70428V7.17597H106.495V7.70428H107.024ZM107.024 21.2461V21.7744H107.552V21.2461H107.024ZM104.513 21.2461H103.984V21.7744H104.513V21.2461ZM104.513 7.70428H105.041V7.17597H104.513V7.70428ZM99.6025 7.70428H99.0742V8.23258H99.6025V7.70428ZM99.6025 5.59678V5.06847H99.0742V5.59678H99.6025ZM111.934 5.59678H112.462V5.06847H111.934V5.59678ZM111.934 7.70428V8.23258H112.462V7.70428H111.934ZM106.495 7.70428V21.2461H107.552V7.70428H106.495ZM107.024 20.7178H104.513V21.7744H107.024V20.7178ZM105.041 21.2461V7.70428H103.984V21.2461H105.041ZM104.513 7.17597H99.6025V8.23258H104.513V7.17597ZM100.131 7.70428V5.59678H99.0742V7.70428H100.131ZM99.6025 6.12508H111.934V5.06847H99.6025V6.12508ZM111.405 5.59678V7.70428H112.462V5.59678H111.405ZM111.934 7.17597H107.024V8.23258H111.934V7.17597Z" fill="#FF9E2C"/>
<path d="M40.5826 29.6986H40.3808V41.7383H38.1836V26.089H41.4121L46.0083 38.1286H46.21V26.089H48.4072V41.7383H45.1787L40.5826 29.6986ZM53.5103 41.7383V26.089H63.3079V28.1965H56.0213V32.7478H63.0389V34.8553H56.0213V39.6308H63.3079V41.7383H53.5103ZM68.5231 41.7383V26.089H78.3207V28.1965H71.0341V32.7478H78.0517V34.8553H71.0341V39.6308H78.3207V41.7383H68.5231ZM83.4462 26.089H88.1096C90.1124 26.089 91.5922 26.7541 92.5488 28.0844C93.5203 29.4146 94.0061 31.3577 94.0061 33.9136C94.0061 36.4695 93.5203 38.4126 92.5488 39.7429C91.5922 41.0731 90.1124 41.7383 88.1096 41.7383H83.4462V26.089ZM87.9526 39.6756C89.1035 39.6756 89.9555 39.2945 90.5085 38.5322C91.0765 37.755 91.3605 36.6489 91.3605 35.214V32.6133C91.3605 31.1784 91.0765 30.0798 90.5085 29.3175C89.9555 28.5402 89.1035 28.1516 87.9526 28.1516H85.9348V39.6756H87.9526ZM103.212 42.0073C101.852 42.0073 100.708 41.7682 99.7818 41.2899C98.855 40.8116 98.0928 40.1763 97.4949 39.3842L99.1091 37.8372C99.707 38.5546 100.342 39.0852 101.015 39.429C101.687 39.7578 102.45 39.9222 103.302 39.9222C104.288 39.9222 105.043 39.698 105.566 39.2496C106.104 38.8012 106.373 38.1585 106.373 37.3215C106.373 36.6489 106.179 36.1332 105.79 35.7745C105.402 35.4008 104.737 35.1318 103.795 34.9674L102.091 34.6983C101.344 34.5788 100.716 34.3844 100.208 34.1154C99.6995 33.8314 99.2885 33.5026 98.9746 33.1289C98.6607 32.7403 98.4291 32.3143 98.2796 31.851C98.1451 31.3727 98.0778 30.8719 98.0778 30.3488C98.0778 28.8691 98.5561 27.7481 99.5127 26.9858C100.469 26.2085 101.785 25.8199 103.459 25.8199C104.699 25.8199 105.753 26.0217 106.62 26.4253C107.502 26.8139 108.212 27.3669 108.75 28.0844L107.18 29.6538C106.747 29.1306 106.231 28.7121 105.633 28.3982C105.051 28.0694 104.326 27.905 103.459 27.905C102.532 27.905 101.822 28.1068 101.329 28.5103C100.85 28.899 100.611 29.4744 100.611 30.2367C100.611 30.8794 100.798 31.3876 101.172 31.7613C101.56 32.12 102.241 32.3816 103.212 32.546L104.871 32.8375C106.276 33.0915 107.3 33.6072 107.943 34.3844C108.585 35.1467 108.907 36.0809 108.907 37.187C108.907 37.9044 108.78 38.5621 108.526 39.16C108.286 39.7578 107.92 40.266 107.427 40.6845C106.949 41.103 106.351 41.4319 105.633 41.671C104.931 41.8952 104.124 42.0073 103.212 42.0073Z" fill="#FF9E2C"/>
<defs>
<clipPath id="clip0_240_6298">
<rect width="20.1782" height="20.1782" fill="white" transform="translate(33.1533 2.71484)"/>
</clipPath>
</defs>
</svg>