<?xml version="1.0" encoding="UTF-8"?><svg id="Layer_1" xmlns="http://www.w3.org/2000/svg" viewBox="0 0 273 250.2"><defs><style>.cls-1{fill:#cfd347;}.cls-2{fill:#567f9d;}.cls-3{fill:#52839c;}.cls-4{fill:#5081a6;}</style></defs><path class="cls-4" d="M254.95,146.78c-.11-1.6-.22-3.36-2-3.99-1.71-.61-2.69,.76-3.71,1.87-2.17,2.33-4.34,4.67-6.59,6.93-.83,.83-1.84,1.55-2.88,2.08-3.07,1.56-5.01,.37-5.25-3.05-.2-2.83,.56-5.52,.98-8.27,.94-6.08,2.85-12.01,2.79-18.24-.04-4.12-2.36-6.19-6.48-5.91-3.88,.25-7.02,2.09-9.85,4.55-4.69,4.07-7.78,9.28-10.51,14.75-.46,.92-.6,2.1-1.81,2.51-.27-1.14-.13-2.22,.11-3.3,1.07-4.85,2.18-9.69,3.17-14.56,.31-1.52,.74-3.23-1.56-3.84-4.15-1.1-8.5,1.03-9.86,5.09-1.86,5.58-3.5,11.38-3.29,17.19,.21,5.78-2.9,8.99-6.7,12.13-1.36,1.13-2.94,2.27-4.88,1.29-1.99-1.01-1.75-2.94-1.68-4.74,.25-6.8,2.16-13.34,3.16-20.02,1.08-7.17,.61-7.89-6.51-7.75-.86,.02-1.98,.51-2.39-.61-1.38-3.82-4.36-3.15-7.23-2.66-11.24,1.92-21.33,13.14-22.66,25.93-.5,4.84-3.23,7.28-7.09,8.5-6.55,2.08-11.25-.23-11.27-7.66-.01-1.89-.01-3.82,.35-5.65,1.6-8.19,3.4-16.34,4.98-24.52,1.21-6.23,3.17-12.35,3.04-18.8-.16-7.99-4.33-13.93-10.98-15.59-3.82-.95-7.65-.87-11.48,.08-8.34,2.06-13.81,7.67-17.98,14.72-2.36,3.99-4.25,8.25-6.53,12.75-.17-1.74,.05-3.06,.14-4.4,.36-5.14,1.43-10.24,.35-15.45-1.36-6.58-6.26-8.78-11.57-8.36-10.15,.8-17.17,6.68-22.64,14.79,.4,2.22,.83,4.45,.74,6.73-.05,1.13,.1,2.16,1.11,2.87,1.06-.1,1.6-.81,1.95-1.72-.48-2.09,1.31-2.3,2.51-2.99,2.14-2.08,4.07-4.42,6.72-5.88,2.23-1.22,4.61-2.93,7.24-1.33,2.6,1.58,1.96,4.43,1.76,6.83-1.13,13.28-3.49,26.39-5.48,39.56-1.01,6.67-2.52,13.3-2.21,20.12,.16,3.7,1.54,5.45,4.65,5.86,4.8,.64,6.8-.43,7.9-4.25,1.06-3.64,1.34-7.43,1.91-11.16,2.03-13.11,4.92-26,10.45-38.14,3.11-6.84,6.81-13.38,13.65-17.3,3.55-2.03,7.51-2.79,11.07-.46,3.41,2.24,2.82,6.06,2.45,9.57-.03,.3-.1,.59-.16,.88-1.26,6.14-2.52,12.27-3.77,18.41,.18,2.55-.15,5.09-.08,7.65,.06,2.2-.59,4.52-2.63,6.02-1.22,3.23-1.18,6.66-1.37,10.01-.54,9.37,5.53,17.46,13.76,18.65,6.53,.94,12.55-.37,17.66-4.61,1.92-1.59,2.87-1.31,4.26,.52,2.31,3.05,5.54,4.28,9.39,4.34,5.11,.09,8.72-2.48,11.61-6.26,1.5-1.97,2.03-1.67,3.13,.34,3.34,6.07,8.87,7.57,14.92,4.18,1.47-.82,2.88-1.81,4.13-2.93,1.61-1.43,2.64-1.97,3.41,.74,.67,2.35,2.21,3.89,4.96,3.94,2.91,.06,4.75-1.3,5.69-3.91,.73-2.05,1.32-4.16,1.88-6.27,1.93-7.19,4.95-13.86,9.4-19.84,.75-1.01,1.76-2.22,3.22-1.55,1.22,.56,.83,1.95,.68,2.97-.71,4.91-1.59,9.8-2.28,14.72-1,7.2,1.3,15.29,12.3,13.72,8.68-1.23,14.34-6.85,18.9-13.78,.74-1.12,.98-2.61,.88-4.04Zm-78.8-15.33c-.87,4.28-1.76,8.55-2.62,12.83-.49,2.46-1.24,4.82-2.46,7.01-1.72,3.11-4.1,4.47-6.78,3.63-2.93-.92-3.32-3.4-3.3-6.02v-1.2c.39-7.15,2.7-13.42,8.3-18.17,.68-.58,1.46-1.06,2.25-1.45,1.6-.8,3.52-2.01,4.99-.8,.96,.79-.09,2.75-.38,4.17Z"/><path class="cls-1" d="M192.47,58.76c-4.17,.93-7.24-.53-10.39-3.56-12.12-11.65-26.63-18.97-43.01-22.74-22.13-5.09-43.22-1.77-63.08,8.57-17.99,9.37-31.58,23.5-40.05,42.04-12.06,26.4-12.14,52.95,.47,79.21,11.88,24.76,31.42,40.93,57.65,48.34,27.48,7.77,53.4,3.35,77.24-12.59,4.99-3.34,9.54-7.17,13.75-11.43,2.13-2.15,4.72-.63,7.25-.81-9.88,12.57-22.45,21.62-37.05,27.79-14.6,6.17-29.97,9.1-45.79,7.67-49.68-4.47-84.2-40.66-90.86-83.55C10.83,87.65,40.57,42.68,86.08,27.95c42.21-13.66,84.62,2.88,106.39,30.81Z"/><path class="cls-2" d="M58.64,94.56c2.22,1.61,1.29,4.15,1.53,6.22,.13,1.06,.18,2.25,.32,3.39-2.74,.35-4.65-1.75-4.03-4.63,.38-1.77,.82-3.59,2.18-4.98Z"/><path class="cls-3" d="M121.13,122.16c.48,3.97,1.47,7.89-.12,11.9-.56,1.43-1.24,1.88-2.58,1.77,.54-4.63,1.73-9.13,2.7-13.67Z"/><path class="cls-2" d="M62.43,102.45c-.69-.46-1.3-1.08-.86-1.91,.73-1.37,2.08-1.21,3.37-1.08-.84,1-1.67,2-2.51,2.99Z"/></svg>