<svg width="17" height="31" viewBox="0 0 17 31" fill="none" xmlns="http://www.w3.org/2000/svg">
<path d="M8.32906 0C6.17688 0.0271873 4.11649 0.876013 2.56971 2.3727C1.02293 3.86939 0.106756 5.90073 0.0087561 8.05084C-0.0892438 10.201 0.638342 12.3072 2.04256 13.9384C3.44677 15.5696 5.4214 16.6023 7.56218 16.8252V23.2746V29.724C7.56218 29.9274 7.64298 30.1224 7.7868 30.2663C7.93061 30.4101 8.12567 30.4909 8.32906 30.4909C8.53244 30.4909 8.7275 30.4101 8.87132 30.2663C9.01514 30.1224 9.09593 29.9274 9.09593 29.724V16.8252C11.2367 16.6023 13.2113 15.5696 14.6156 13.9384C16.0198 12.3072 16.7474 10.201 16.6494 8.05084C16.5514 5.90073 15.6352 3.86939 14.0884 2.3727C12.5416 0.876013 10.4812 0.0271873 8.32906 0ZM8.32906 15.3375C6.964 15.3375 5.6296 14.9327 4.49459 14.1743C3.35959 13.4159 2.47496 12.338 1.95257 11.0768C1.43019 9.81568 1.29351 8.42795 1.55982 7.08912C1.82613 5.75029 2.48347 4.5205 3.44871 3.55525C4.41395 2.59001 5.64374 1.93267 6.98257 1.66636C8.3214 1.40005 9.70913 1.53673 10.9703 2.05912C12.2314 2.5815 13.3094 3.46613 14.0677 4.60114C14.8261 5.73614 15.2309 7.07055 15.2309 8.4356C15.2309 9.34197 15.0524 10.2395 14.7055 11.0768C14.3587 11.9142 13.8503 12.6751 13.2094 13.316C12.5685 13.9569 11.8077 14.4652 10.9703 14.8121C10.1329 15.1589 9.23542 15.3375 8.32906 15.3375Z" fill="#8E4F2F"/>
</svg>
